<svg width="18" height="13" viewBox="0 0 18 13" fill="none" xmlns="http://www.w3.org/2000/svg">
<path d="M17.0713 2.41413L6.72979 12.7556C6.6382 12.8479 6.51352 12.8998 6.38345 12.8998C6.25338 12.8998 6.1287 12.8479 6.03711 12.7556L0.77857 7.49702C0.686219 7.4055 0.634277 7.28082 0.634277 7.15068C0.634277 7.02063 0.686219 6.89594 0.77857 6.80433L1.4615 6.12141C1.55309 6.02911 1.67777 5.97711 1.80784 5.97711C1.93791 5.97711 2.06259 6.02911 2.15418 6.12141L6.37857 10.3458L15.6956 1.02876C15.8886 0.84165 16.1954 0.84165 16.3883 1.02876L17.0713 1.72144C17.1636 1.81304 17.2155 1.93772 17.2155 2.06779C17.2155 2.19785 17.1636 2.32253 17.0713 2.41413Z" fill="#3D3A41"/>
</svg>
